<svg width="24" height="24" viewBox="0 0 24 24" fill="none" xmlns="http://www.w3.org/2000/svg">
<path d="M18.364 7.05026L13.4142 12L18.364 16.9497C18.7529 17.3387 18.7529 17.9751 18.364 18.364C17.9751 18.7529 17.3387 18.7529 16.9497 18.364L12 13.4142L7.05026 18.364C6.66135 18.7529 6.02495 18.7529 5.63604 18.364C5.24713 17.9751 5.24713 17.3387 5.63604 16.9497L10.5858 12L5.63604 7.05026C5.24713 6.66135 5.24713 6.02495 5.63604 5.63604C6.02495 5.24713 6.66135 5.24713 7.05026 5.63604L12 10.5858L16.9497 5.63604C17.3387 5.24713 17.9751 5.24713 18.364 5.63604C18.7529 6.02495 18.7529 6.66135 18.364 7.05026Z" fill="#25282B"/>
</svg>
